<svg
   viewBox="0 0 102.81 129.36"
   version="1.1"
   width="100%"
   height="100%"
   xmlns="http://www.w3.org/2000/svg"
   xmlns:svg="http://www.w3.org/2000/svg">
  <defs
     id="defs2">
    <style
       id="style1">&#10;      .cls-1 {&#10;        fill: none;&#10;      }&#10;&#10;      .cls-2 {&#10;        fill: url(#linear-gradient);&#10;      }&#10;    </style>
    <linearGradient
       id="linear-gradient"
       x1="75.540001"
       y1="113"
       x2="75.540001"
       y2="143.14999"
       gradientUnits="userSpaceOnUse">
      <stop
         offset="0"
         stop-color="#ee46e0"
         id="stop1" />
      <stop
         offset="1"
         stop-color="#da3737"
         id="stop2" />
    </linearGradient>
  </defs>
  <path
     class="cls-2"
     d="m 33.44,110.18 c -5.86,-5.34 -7.57,-16.57 -5.13,-24.7 4.23,5.13 10.1,6.75 16.17,7.67 10.41,1.56 21.21,0.76 30.3,-5.19 2.64,7.89 -1.02,16.49 -7.6,21.14 -8.36,5.63 -14.92,8.86 -10.92,20.26 -6.02,-2.64 -9.6,-8.59 -9.64,-15 -0.02,-1.6 -0.02,-3.21 -0.24,-4.79 -0.53,-3.84 -2.33,-5.56 -5.74,-5.66 -3.89,-0.16 -6.6,2.57 -7.21,6.27 v 0 z"
     id="path2"
     style="fill:#ff7e33;fill-opacity:1" />
  <path
     d="m 0.01,84.12 c 0,0 17.35,-8.43 34.74,-8.43 L 47.87,35.2 c 0.49,-1.96 1.92,-3.29 3.54,-3.29 1.62,0 3.05,1.33 3.54,3.29 l 13.12,40.49 c 20.6,0 34.74,8.43 34.74,8.43 0,0 -29.47,-80.07 -29.52,-80.23 C 72.44,1.52 71.02,0 69.09,0 H 33.73 C 31.81,0 30.44,1.52 29.53,3.89 29.47,4.05 0,84.12 0,84.12 Z"
     id="path3" />
</svg>
