<svg width="100%" height="100%" viewBox="0 0 40 40" version="1.1" sodipodi:docname="vapor-svgrepo-com-pb.svg"
    fill="currentColor">
    <title id="title1">Teseu's vaporHole</title>
    <path
      d="M35.99,8H25.44a1,1,0,0,0-.9.568l-4.373,9.12-4.373-9.12A1,1,0,0,0,14.89,8H4.34a1,1,0,0,0-.9,1.432l10.55,22a1,1,0,0,0,.9.568H25.44a1,1,0,0,0,.9-.576L36.892,9.432A1,1,0,0,0,35.99,8Zm-21.1,3.313L18.58,19H11.208ZM5.934,10h7.372L9.62,17.687Zm8.959,18.687v0L11.207,21h7.372l-3.685,7.685v0ZM16.483,30l3.686-7.687L23.855,30Zm8.961-1.313L21.758,21H29.13ZM21.758,19l3.686-7.687L29.13,19Zm8.96-1.313L27.032,10h7.373Z"
      id="path7">
    </path>
  </svg>